<svg width="615" height="151" viewBox="0 0 615 151" fill="none" xmlns="http://www.w3.org/2000/svg">
<g clip-path="url(#clip0_6_175)">
<path fill-rule="evenodd" clip-rule="evenodd" d="M607.47 104.041C605.567 102.663 604.057 102.466 602.811 105.09C581.422 151.344 545.403 128.25 549.012 130.284C557.016 126.61 578.011 109.814 574.862 86.5231C572.959 72.286 560.755 65.9877 547.766 68.2839C525.13 72.2205 516.864 96.6269 521.062 118.212C521.784 121.952 523.096 124.97 524.475 127.988C498.952 148.786 488.784 109.421 487.602 104.697C487.537 104.434 507.351 87.9665 512.862 48.6671C518.635 7.53047 505.513 -0.0145131 492.065 0.247921C467.199 0.70718 460.506 52.6035 469.494 95.8395C468.772 96.0363 465.229 98.0046 459.588 98.2014C455.52 85.4078 438.134 74.1888 433.607 78.5189C422.256 89.3444 436.362 110.47 446.336 112.11C440.364 148.917 402.967 139.797 409.922 93.6744C422.06 71.1051 431.376 37.448 429.67 17.1749C429.079 10.0236 423.765 0.379138 411.759 0.838397C388.665 1.75692 386.172 53.6532 388.862 90.5253C388.731 89.6067 387.418 94.9866 377.97 97.6766C375.74 85.2766 355.729 72.7454 351.006 78.7814C342.215 90.0005 357.501 110.011 364.717 111.389C358.747 148.195 321.351 139.076 328.305 92.9528C340.509 70.3835 349.759 36.7919 348.118 16.5189C347.529 9.3675 342.215 -0.276947 330.207 0.182312C307.113 1.10083 304.62 52.9971 307.311 89.8692C307.179 88.9506 305.867 94.5275 296.025 97.1517C295.698 81.012 275.622 73.6638 270.767 78.7814C262.172 87.9665 272.734 106.796 282.51 111.389C276.54 148.195 239.144 139.076 246.098 92.9528C258.236 70.3835 267.552 36.7263 265.846 16.4532C265.322 9.3675 260.007 -0.276947 247.999 0.182312C224.905 1.10083 223.069 55.6215 225.759 92.4935C218.148 125.101 192.627 165.779 195.972 84.2268C196.3 78.5189 196.629 76.3538 193.807 74.1888C191.643 72.5486 186.788 73.3358 184.163 73.4015C180.948 73.5327 180.096 75.4353 179.439 78.2565C177.799 85.6046 177.471 92.756 177.208 102.532C177.078 107.124 176.684 109.224 174.912 115.457C173.141 121.689 163.169 133.04 157.658 131.137C150.047 128.513 152.54 107.059 153.982 92.2967C155.165 80.6184 151.359 75.4353 141.649 73.5327C135.941 72.3518 132.464 72.5486 126.559 70.6458C120.916 68.8745 119.67 58.2459 107.729 61.7888C101.168 63.7571 105.367 77.6004 103.793 87.9009C96.0508 138.485 79.9769 139.863 72.4974 115.325C106.089 32.921 82.142 0.444746 68.1672 0.444746C53.6022 0.444746 36.9376 10.4828 43.9576 74.7792C40.5461 73.7951 39.4963 73.2702 35.691 73.2702C14.4995 73.2047 0 90.3941 0 111.586C0 132.777 14.4995 149.967 35.7567 149.967C48.2878 149.967 57.0794 144.259 63.7715 135.467C68.1017 141.7 73.416 150.098 83.126 149.704C111.994 148.589 120.392 89.3444 121.376 85.9983C124.459 86.4576 127.412 87.3761 130.233 87.8354C134.957 88.557 135.35 90.4596 135.219 95.1834C133.973 135.467 141.386 149.573 158.249 149.573C167.63 149.573 176.028 140.322 181.801 133.761C186.132 142.684 192.954 149.31 202.206 149.573C224.512 150.098 233.108 114.538 232.32 119.196C231.729 122.87 239.537 149.31 262.566 149.442C291.039 149.573 296.353 118.278 296.944 113.029C297.01 111.979 297.075 112.11 296.944 113.029C296.944 113.095 296.944 113.226 296.944 113.357C305.999 111.651 310.656 106.862 310.656 106.862C310.656 106.862 317.939 149.967 344.773 149.507C372.657 148.982 377.97 120.705 378.627 115.194C378.693 113.882 378.758 114.013 378.627 115.194C378.627 115.26 378.627 115.325 378.627 115.325C389.387 111.389 392.208 107.518 392.208 107.518C392.208 107.518 397.982 149.77 426.324 150.163C451.584 150.492 460.965 124.576 461.031 113.751C465.296 113.816 473.169 111.192 472.973 111.061C472.973 111.061 482.223 147.998 508.073 149.901C520.211 150.819 529.329 143.078 534.513 139.535C546.716 149.442 587.328 162.039 612.981 118.54C616.654 112.373 608.847 104.959 607.47 104.041ZM34.7068 135.598C22.3069 135.598 14.3683 124.117 14.3683 111.782C14.3683 99.4481 21.6509 87.9665 34.0509 87.9665C39.6276 87.9665 42.7112 88.557 47.1069 92.3624C47.8942 95.4459 50.1249 102.597 51.2403 105.878C52.6836 110.208 54.4551 113.948 56.1609 117.95C53.6022 128.316 45.4666 135.598 34.7068 135.598ZM64.8868 92.6904C64.362 91.8375 64.4932 92.3624 63.9027 91.575C61.672 85.4078 57.2763 71.63 56.7514 55.9496C56.1609 38.2353 59.1133 17.4374 67.8391 17.4374C73.744 17.4374 80.0424 59.5581 64.8868 92.6904ZM239.471 74.2543C238.094 63.7571 238.027 16.847 249.247 18.159C255.48 20.6522 245.31 64.8723 239.471 74.2543ZM321.678 74.2543C320.301 63.7571 320.235 16.847 331.455 18.159C337.688 20.6522 327.517 64.8723 321.678 74.2543ZM403.23 74.9105C401.852 64.413 401.787 17.5029 413.005 18.8151C419.238 21.2427 409.07 65.5284 403.23 74.9105ZM493.245 15.338C503.545 14.2881 503.087 59.2301 482.486 87.5729C479.795 77.3379 475.728 18.8808 493.245 15.338ZM536.547 112.11C533.266 95.3804 541.796 84.4236 550.587 83.2427C553.671 82.7835 558.132 84.7517 558.984 88.4915C560.429 95.5115 558.787 105.943 539.04 119.131C539.106 119.196 537.268 115.785 536.547 112.11ZM187.575 60.5421C194.595 60.5421 200.303 54.8342 200.303 47.8142C200.303 40.794 194.595 35.0861 187.575 35.0861C180.555 35.0861 174.846 40.794 174.846 47.8142C174.846 54.8342 180.555 60.5421 187.575 60.5421Z" fill="#444444"/>
</g>
<defs>
<clipPath id="clip0_6_175">
<rect width="615" height="150" fill="white" transform="translate(0 0.166504)"/>
</clipPath>
</defs>
</svg>
