<svg width="431" height="151" viewBox="0 0 431 151" fill="none" xmlns="http://www.w3.org/2000/svg">
<g clip-path="url(#clip0_7_59)">
<path d="M292.63 112.81C289.193 117.746 284.265 121.451 278.569 123.384C272.874 125.316 266.709 125.374 260.977 123.55C255.246 121.725 250.25 118.113 246.72 113.242C243.19 108.372 241.312 102.5 241.361 96.4852C241.411 90.4705 243.385 84.6297 246.994 79.8181C250.603 75.0065 255.658 71.4769 261.418 69.7462C267.179 68.0155 273.342 68.1747 279.006 70.2004C284.669 72.2261 289.535 76.012 292.891 81.0035L313.702 68.7165C307.642 59.1566 298.645 51.8206 288.06 47.8102C277.476 43.7999 265.876 43.3316 255.003 46.4757C244.13 49.6199 234.57 56.2067 227.759 65.2471C220.949 74.2875 217.255 85.2934 217.233 96.6121C217.21 107.931 220.861 118.951 227.636 128.018C234.41 137.086 243.944 143.71 254.805 146.897C265.665 150.084 277.267 149.662 287.867 145.693C298.467 141.725 307.494 134.424 313.591 124.888L292.637 112.81H292.63ZM349.969 0.166504H325.826V144.988H349.956V96.7143C349.956 89.2456 352.923 82.0828 358.205 76.8016C363.486 71.5204 370.649 68.5535 378.117 68.5535C385.586 68.5535 392.749 71.5204 398.03 76.8016C403.311 82.0828 406.278 89.2456 406.278 96.7143V144.988H430.415V92.0187C430.412 82.7018 427.674 73.5907 422.543 65.8144C417.411 58.0381 410.111 51.9384 401.546 48.2712C392.981 44.6039 383.528 43.5303 374.359 45.1833C365.19 46.8364 356.708 51.1435 349.963 57.5709V0.166504H349.969ZM181.017 0.166504H156.88V112.803C156.879 119.755 158.88 126.56 162.643 132.405C166.405 138.25 171.772 142.888 178.1 145.765C184.428 148.642 191.451 149.636 198.329 148.628C205.207 147.621 211.649 144.655 216.887 140.084L205.226 120.297C204.097 121.724 202.66 122.876 201.022 123.668C199.384 124.46 197.589 124.87 195.769 124.869H193.083C189.883 124.867 186.815 123.595 184.553 121.333C182.291 119.071 181.019 116.003 181.017 112.803V72.5774H205.148V48.4404H181.017V0.166504ZM128.739 0.166504C125.183 0.166504 121.772 1.5792 119.258 4.09382C116.743 6.60844 115.33 10.019 115.33 13.5752C115.33 17.1314 116.743 20.542 119.258 23.0566C121.772 25.5712 125.183 26.9839 128.739 26.9839C132.295 26.9839 135.706 25.5712 138.22 23.0566C140.735 20.542 142.148 17.1314 142.148 13.5752C142.148 10.019 140.735 6.60844 138.22 4.09382C135.706 1.5792 132.295 0.166504 128.739 0.166504V0.166504ZM140.804 144.988V48.4404H116.674V144.988H140.804Z" fill="black"/>
<path fill-rule="evenodd" clip-rule="evenodd" d="M0 144.988H24.1304V116.827H46.2587C53.9188 116.827 61.5038 115.319 68.5808 112.387C75.6578 109.456 82.0881 105.159 87.5045 99.7428C92.921 94.3263 97.2176 87.896 100.149 80.819C103.08 73.7421 104.589 66.157 104.589 58.4969C104.589 50.8369 103.08 43.2518 100.149 36.1748C97.2176 29.0979 92.921 22.6676 87.5045 17.2511C82.0881 11.8346 75.6578 7.53802 68.5808 4.60664C61.5038 1.67526 53.9188 0.166504 46.2587 0.166504L0 0.166504V144.988ZM24.1304 24.2969H46.2587C55.3274 24.2969 64.0246 27.8995 70.4371 34.312C76.8497 40.7245 80.4522 49.4217 80.4522 58.4904C80.4522 67.5591 76.8497 76.2563 70.4371 82.6689C64.0246 89.0814 55.3274 92.6839 46.2587 92.6839H24.137V24.2969H24.1304Z" fill="black"/>
</g>
<defs>
<clipPath id="clip0_7_59">
<rect width="430.435" height="150" fill="white" transform="translate(0 0.166504)"/>
</clipPath>
</defs>
</svg>
