<svg width="576" height="150" viewBox="0 0 576 150" fill="none" xmlns="http://www.w3.org/2000/svg">
<path fill-rule="evenodd" clip-rule="evenodd" d="M189.86 42.6608H193.43C195.866 42.6608 197.841 44.6358 197.841 47.072V51.2486C197.841 51.378 197.946 51.483 198.076 51.483C200.108 47.8888 202.843 45.2748 206.282 43.6411C209.721 42.0074 213.433 41.1905 217.42 41.1905C221.718 41.1905 225.587 41.9869 229.025 43.5798C232.465 45.1727 235.396 47.3579 237.818 50.1352C240.241 52.9126 242.078 56.18 243.328 59.9376C244.579 63.6954 245.204 67.7388 245.204 72.0684C245.204 76.3974 244.54 80.4408 243.211 84.1986C241.882 87.9564 240.026 91.224 237.643 94.0014C235.259 96.7782 232.387 98.9634 229.025 100.556C225.665 102.149 221.992 102.946 218.006 102.946C215.348 102.946 213.004 102.66 210.971 102.088C208.939 101.516 207.142 100.781 205.579 99.8826C204.016 98.9838 202.687 98.0244 201.593 97.0032C200.498 95.982 199.6 94.9812 198.896 94.0014C198.702 94.0014 198.545 94.1586 198.545 94.353V124.029C198.545 127.002 196.135 129.412 193.161 129.412H189.86C186.887 129.412 184.477 127.002 184.477 124.029V48.0442C184.477 45.071 186.887 42.6608 189.86 42.6608ZM231.136 72.0684C231.136 69.7812 230.765 67.5756 230.022 65.4516C229.28 63.3276 228.185 61.449 226.739 59.8151C225.293 58.1813 223.555 56.8744 221.522 55.8941C219.491 54.9139 217.185 54.4238 214.606 54.4238C212.027 54.4238 209.721 54.9139 207.689 55.8941C205.657 56.8744 203.918 58.1813 202.472 59.8151C201.026 61.449 199.932 63.3276 199.189 65.4516C198.447 67.5756 198.076 69.7812 198.076 72.0684C198.076 74.3556 198.447 76.5612 199.189 78.6846C199.932 80.8086 201.026 82.6872 202.472 84.321C203.918 85.9548 205.657 87.2622 207.689 88.242C209.721 89.2224 212.027 89.7126 214.606 89.7126C217.185 89.7126 219.491 89.2224 221.522 88.242C223.555 87.2622 225.293 85.9548 226.739 84.321C228.185 82.6872 229.28 80.8086 230.022 78.6846C230.765 76.5612 231.136 74.3556 231.136 72.0684ZM265.476 42.6608H269.505C272.077 42.6608 274.161 44.7455 274.161 47.317V51.7387C274.161 51.8682 274.266 51.9732 274.396 51.9732C275.959 48.5423 278.186 45.8875 281.078 44.0087C283.97 42.1299 287.291 41.1905 291.043 41.1905C291.902 41.1905 292.742 41.2722 293.563 41.4356C295.028 41.7273 296.084 43.0133 296.084 44.5073V52.5743C296.084 54.1967 294.769 55.5118 293.146 55.5118C292.972 55.5118 292.798 55.4963 292.625 55.4653C291.492 55.2611 290.378 55.1589 289.284 55.1589C286.001 55.1589 283.364 55.792 281.371 57.0582C279.378 58.3243 277.854 59.7743 276.799 61.4082C275.744 63.042 275.04 64.6752 274.688 66.309C274.337 67.9428 274.161 69.168 274.161 69.9852V96.0918C274.161 99.0654 271.751 101.476 268.778 101.476H265.476C262.503 101.476 260.093 99.0654 260.093 96.0918V48.0442C260.093 45.071 262.503 42.6608 265.476 42.6608ZM313.073 42.6608H316.375C319.348 42.6608 321.758 45.071 321.758 48.0442V96.0918C321.758 99.0654 319.348 101.476 316.375 101.476H313.073C310.1 101.476 307.69 99.0654 307.69 96.0918V48.0442C307.69 45.071 310.1 42.6608 313.073 42.6608ZM305.697 22.6884C305.697 20.3195 306.537 18.2569 308.218 16.5006C309.898 14.7443 312.028 13.8662 314.607 13.8662C317.186 13.8662 319.355 14.7035 321.113 16.3781C322.872 18.0527 323.751 20.1561 323.751 22.6884C323.751 25.2207 322.872 27.3241 321.113 28.9987C319.355 30.6733 317.186 31.5106 314.607 31.5106C312.028 31.5106 309.898 30.6324 308.218 28.8762C306.537 27.1199 305.697 25.0573 305.697 22.6884ZM366.308 56.1016C363.454 54.0028 360.913 52.9534 358.687 52.9534C356.812 52.9534 354.975 53.4435 353.177 54.4238C351.38 55.404 350.481 56.9969 350.481 59.2024C350.481 60.9996 351.223 62.3064 352.708 63.1236C354.193 63.9402 356.069 64.6344 358.336 65.2062C360.602 65.778 363.044 66.3708 365.663 66.9834C368.281 67.596 370.723 68.535 372.99 69.8016C375.256 71.0676 377.132 72.8034 378.617 75.009C380.102 77.2146 380.845 80.2368 380.845 84.0762C380.845 87.5886 380.122 90.5496 378.676 92.9598C377.23 95.3694 375.354 97.3092 373.048 98.7798C370.743 100.25 368.144 101.312 365.252 101.966C362.36 102.619 359.469 102.946 356.577 102.946C352.2 102.946 348.175 102.292 344.502 100.985C343.063 100.474 341.337 99.4452 339.323 97.8996C336.965 96.09 336.52 92.7102 338.33 90.3516C338.484 90.1506 338.652 89.961 338.833 89.784L340.292 88.3542C342.306 86.3808 345.502 86.2956 347.617 88.1586C348.47 88.9098 349.21 89.4894 349.836 89.8962C351.907 91.2444 354.428 91.9182 357.398 91.9182C358.414 91.9182 359.469 91.7958 360.563 91.5504C361.657 91.3056 362.673 90.897 363.611 90.3252C364.549 89.7534 365.311 89.0388 365.897 88.1808C366.483 87.3234 366.776 86.3226 366.776 85.179C366.776 83.1366 366.034 81.6258 364.549 80.6454C363.064 79.665 361.188 78.8688 358.922 78.2562C356.655 77.6436 354.213 77.0718 351.595 76.5408C348.976 76.0098 346.534 75.1518 344.267 73.9674C342.001 72.783 340.125 71.1288 338.64 69.0048C337.155 66.8808 336.413 63.9402 336.413 60.183C336.413 56.9152 337.057 54.0766 338.347 51.6668C339.637 49.257 341.336 47.2761 343.447 45.7241C345.557 44.172 347.98 43.0284 350.715 42.2933C353.45 41.5581 356.225 41.1905 359.039 41.1905C362.791 41.1905 366.503 41.8644 370.176 43.2122C371.506 43.7003 372.99 44.604 374.627 45.9234C376.943 47.7888 377.308 51.1779 375.442 53.493C375.287 53.6856 375.119 53.8671 374.938 54.0365L373.186 55.6856C371.293 57.4653 368.401 57.6402 366.308 56.1016ZM398.303 42.6608H400.901C403.874 42.6608 406.285 45.071 406.285 48.0442V51.8506C407.77 49.0733 409.782 46.6023 412.556 44.4375C415.331 42.2728 419.063 41.1905 423.752 41.1905C432.584 41.1905 438.446 44.8255 441.338 52.0957C443.369 48.3381 445.91 45.5811 448.958 43.8249C452.006 42.0686 455.64 41.1905 459.86 41.1905C463.612 41.1905 466.778 41.844 469.357 43.151C471.936 44.4579 474.026 46.2551 475.629 48.5423C477.231 50.8296 478.384 53.5048 479.087 56.568C479.791 59.6313 480.142 62.919 480.142 66.432V96.0918C480.142 99.0654 477.732 101.476 474.759 101.476H471.458C468.484 101.476 466.074 99.0654 466.074 96.0918V68.1474C466.074 66.3498 465.918 64.614 465.605 62.9394C465.293 61.2648 464.746 59.7947 463.964 58.5285C463.183 57.2624 462.127 56.2617 460.799 55.5266C459.47 54.7914 457.75 54.4238 455.64 54.4238C453.452 54.4238 451.595 54.8526 450.071 55.7103C448.547 56.568 447.297 57.7116 446.32 59.1411C445.343 60.5706 444.64 62.2044 444.21 64.0422C443.78 65.8806 443.565 67.7388 443.565 69.6174V96.0918C443.565 99.0654 441.155 101.476 438.182 101.476H434.881C431.907 101.476 429.497 99.0654 429.497 96.0918V66.432C429.497 62.7558 428.755 59.8355 427.27 57.6708C425.785 55.506 423.323 54.4238 419.884 54.4238C417.539 54.4238 415.565 54.8322 413.963 55.6491C412.361 56.4659 411.032 57.5687 409.978 58.9574C408.922 60.3462 408.16 61.9392 407.691 63.7362C407.222 65.5332 406.988 67.4118 406.988 69.3726V96.0918C406.988 99.0654 404.578 101.476 401.605 101.476H398.303C395.33 101.476 392.92 99.0654 392.92 96.0918V48.0442C392.92 45.071 395.33 42.6608 398.303 42.6608ZM502.876 42.6608H506.178C509.151 42.6608 511.561 45.071 511.561 48.0442V96.0918C511.561 99.0654 509.151 101.476 506.178 101.476H502.876C499.903 101.476 497.493 99.0654 497.493 96.0918V48.0442C497.493 45.071 499.903 42.6608 502.876 42.6608ZM495.5 22.6884C495.5 20.3195 496.34 18.2569 498.02 16.5006C499.701 14.7443 501.83 13.8662 504.41 13.8662C506.989 13.8662 509.158 14.7035 510.916 16.3781C512.675 18.0527 513.554 20.1561 513.554 22.6884C513.554 25.2207 512.675 27.3241 510.916 28.9987C509.158 30.6733 506.989 31.5106 504.41 31.5106C501.83 31.5106 499.701 30.6324 498.02 28.8762C496.34 27.1199 495.5 25.0573 495.5 22.6884ZM564.32 57.0853C563.741 56.6322 563.232 56.276 562.793 56.0166C560.995 54.9548 559.159 54.4238 557.282 54.4238C554.704 54.4238 552.398 54.9139 550.366 55.8941C548.334 56.8744 546.595 58.1813 545.149 59.8151C543.703 61.449 542.609 63.3276 541.867 65.4516C541.124 67.5756 540.752 69.7812 540.752 72.0684C540.752 74.3556 541.124 76.5612 541.867 78.6846C542.609 80.8086 543.703 82.6872 545.149 84.321C546.595 85.9548 548.334 87.2622 550.366 88.242C552.398 89.2224 554.704 89.7126 557.282 89.7126C559.471 89.7126 561.503 89.2428 563.379 88.3032C563.758 88.1136 564.17 87.8556 564.614 87.5286C566.852 85.8828 569.977 86.211 571.824 88.287L573.962 90.6894C575.845 92.8038 575.656 96.0438 573.541 97.926C573.282 98.157 572.999 98.361 572.699 98.535C570.862 99.5964 569.006 100.454 567.13 101.108C565.255 101.761 563.457 102.231 561.737 102.517C560.018 102.803 558.533 102.946 557.282 102.946C553.062 102.946 549.076 102.211 545.325 100.74C541.573 99.27 538.33 97.1868 535.594 94.491C532.859 91.7958 530.69 88.5486 529.088 84.75C527.486 80.9514 526.684 76.7244 526.684 72.0684C526.684 67.4118 527.486 63.1848 529.088 59.3862C530.69 55.5878 532.859 52.3407 535.594 49.6451C538.33 46.9494 541.573 44.8664 545.325 43.396C549.076 41.9256 553.062 41.1905 557.282 41.1905C560.878 41.1905 564.493 41.9052 568.127 43.3347C569.512 43.8795 571.146 44.8536 573.029 46.2569C575.413 48.0336 575.905 51.4065 574.128 53.7904C573.997 53.9672 573.854 54.1356 573.701 54.2949L571.527 56.5675C569.615 58.5665 566.498 58.7903 564.32 57.0853Z" fill="black"/>
<path fill-rule="evenodd" clip-rule="evenodd" d="M146.002 76.9896L135.096 66.0588C134.231 65.1924 133.746 64.0182 133.746 62.7942V49.4152C133.746 37.0538 132.462 32.5713 130.05 28.0522C127.638 23.533 124.099 19.9864 119.59 17.5695C115.08 15.1526 110.607 13.8655 98.2723 13.8655H80.6311C80.1205 13.8655 79.7065 13.4517 79.7065 12.9412C79.7065 12.6964 79.8037 12.4616 79.9765 12.2882L90.8839 1.35723C91.7509 0.488311 92.9281 0 94.1557 0H100.284C116.73 0 122.694 1.7161 128.707 4.93859C134.719 8.16108 139.438 12.8899 142.653 18.9155C145.869 24.941 147.582 30.9177 147.582 47.3996V76.3362C147.582 76.8468 147.168 77.2608 146.657 77.2608C146.412 77.2608 146.176 77.163 146.002 76.9896Z" fill="black"/>
<path fill-rule="evenodd" clip-rule="evenodd" d="M70.7524 146.324L81.6598 135.392C82.5268 134.524 83.704 134.035 84.9316 134.035H98.272C110.607 134.035 115.08 132.748 119.589 130.331C124.098 127.915 127.637 124.368 130.049 119.849C132.461 115.33 133.745 110.847 133.745 98.4858V80.808C133.745 80.2974 134.159 79.884 134.669 79.884C134.915 79.884 135.15 79.9812 135.324 80.1552L146.231 91.0854C147.095 91.9518 147.581 93.126 147.581 94.35V100.501C147.581 116.983 145.868 122.96 142.653 128.986C139.437 135.011 134.718 139.74 128.706 142.963C122.693 146.185 116.73 147.901 100.283 147.901H71.4064C70.8958 147.901 70.4824 147.487 70.4824 146.977C70.4824 146.732 70.5796 146.497 70.7524 146.324Z" fill="black"/>
<path fill-rule="evenodd" clip-rule="evenodd" d="M1.5787 70.9104L12.4855 81.8412C13.3502 82.7076 13.8358 83.8818 13.8358 85.1058V98.4846C13.8358 110.846 15.1201 115.328 17.5317 119.848C19.9434 124.367 23.4824 127.913 27.9918 130.33C32.5013 132.748 36.9742 134.035 49.309 134.035H66.9504C67.461 134.035 67.875 134.448 67.875 134.959C67.875 135.203 67.7778 135.439 67.605 135.611L56.6972 146.543C55.8302 147.412 54.6531 147.9 53.4256 147.9H47.2976C30.8512 147.9 24.8873 146.184 18.8748 142.961C12.8622 139.739 8.1435 135.01 4.92797 128.984C1.71241 122.959 0 116.982 0 100.501V71.5638C0 71.0532 0.413855 70.6392 0.924372 70.6392C1.16987 70.6392 1.40529 70.737 1.5787 70.9104Z" fill="black"/>
<path fill-rule="evenodd" clip-rule="evenodd" d="M76.8288 1.5773L65.9208 12.5083C65.0538 13.3772 63.8772 13.8656 62.6496 13.8656H49.309C36.9742 13.8656 32.5012 15.1526 27.9918 17.5695C23.4824 19.9864 19.9434 23.533 17.5317 28.0522C15.1201 32.5713 13.8358 37.0539 13.8358 49.4153V67.0926C13.8358 67.6032 13.4219 68.0172 12.9113 68.0172C12.6659 68.0172 12.4304 67.9194 12.257 67.746L1.35019 56.8154C0.485579 55.9489 0 54.7748 0 53.5507V47.3996C0 30.9178 1.71241 24.941 4.92797 18.9155C8.1435 12.89 12.8622 8.16108 18.8748 4.93859C24.8873 1.71611 30.8512 0 47.2976 0H76.1742C76.6848 0 77.0988 0.413855 77.0988 0.924372C77.0988 1.16918 77.0016 1.404 76.8288 1.5773Z" fill="black"/>
<path fill-rule="evenodd" clip-rule="evenodd" d="M122.958 53.9632L108.085 39.7179C107.101 38.7321 105.95 38.0155 104.724 37.568C103.71 37.1838 102.611 36.9734 101.462 36.9734H57.5611C57.0506 36.9734 56.6367 36.5596 56.6367 36.0491C56.6367 35.8042 56.734 35.5692 56.907 35.3959L67.8246 24.4637C68.6916 23.5957 69.8682 23.1079 71.0952 23.1079H106.074C116.263 23.1079 124.522 31.385 124.522 41.5953V53.2955C124.522 53.8061 124.108 54.2199 123.598 54.2199C123.359 54.2199 123.13 54.1279 122.958 53.9632Z" fill="black"/>
<path fill-rule="evenodd" clip-rule="evenodd" d="M93.7292 123.238L107.948 108.328C108.932 107.342 109.647 106.189 110.094 104.96C110.477 103.943 110.686 102.842 110.686 101.691V57.6973C110.686 57.1868 111.1 56.7729 111.611 56.7729C111.856 56.7729 112.092 56.8707 112.266 57.0447L123.174 67.9854C124.038 68.8518 124.522 70.0254 124.522 71.2488V106.313C124.522 116.524 116.263 124.801 106.075 124.801H94.3982C93.8876 124.801 93.4736 124.387 93.4736 123.876C93.4736 123.638 93.5648 123.41 93.7292 123.238Z" fill="black"/>
<path fill-rule="evenodd" clip-rule="evenodd" d="M24.6233 93.9366L39.4964 108.182C40.4802 109.168 41.6309 109.884 42.8574 110.332C43.8715 110.716 44.9708 110.926 46.1192 110.926H90.0204C90.531 110.926 90.945 111.34 90.945 111.851C90.945 112.096 90.8478 112.33 90.6744 112.504L79.7568 123.436C78.8898 124.304 77.7132 124.792 76.4862 124.792H41.5072C31.3189 124.792 23.0596 116.515 23.0596 106.304V94.6038C23.0596 94.0938 23.4734 93.6798 23.984 93.6798C24.2222 93.6798 24.4513 93.7716 24.6233 93.9366Z" fill="black"/>
<path fill-rule="evenodd" clip-rule="evenodd" d="M53.8531 24.6702L39.6339 39.5802C38.6501 40.5661 37.9351 41.7192 37.4887 42.9484C37.1052 43.9646 36.8953 45.0663 36.8953 46.2171V90.2112C36.8953 90.7218 36.4814 91.1352 35.971 91.1352C35.7253 91.1352 35.4898 91.0374 35.3164 90.8634L24.4084 79.923C23.5446 79.0566 23.0596 77.883 23.0596 76.6596V41.5953C23.0596 31.385 31.3189 23.1079 41.5072 23.1079H53.1841C53.6946 23.1079 54.1085 23.5217 54.1085 24.0323C54.1085 24.2699 54.017 24.4983 53.8531 24.6702Z" fill="black"/>
</svg>
