<svg width="375" height="150" viewBox="0 0 375 150" fill="none" xmlns="http://www.w3.org/2000/svg">
<g clip-path="url(#clip0_7_1401)">
<path fill-rule="evenodd" clip-rule="evenodd" d="M0 0.171429C0 0.171429 14.7676 -1.73571 24.6127 7.18929C30.6866 12.6964 32.456 21.4714 32.456 21.4714L52.5634 101.571L69.2799 36.0054C70.912 29.0357 73.8433 20.4214 78.4859 14.5929C84.4067 7.17321 96.4331 6.70714 97.7165 6.70714C98.9947 6.70714 111.021 7.17321 116.937 14.5929C121.585 20.4214 124.516 29.0357 126.148 36.0054L142.864 101.571L162.967 21.4661C162.967 21.4661 164.741 12.6911 170.815 7.18393C180.66 -1.73571 195.423 0.171429 195.423 0.171429L156.924 149.877C156.924 149.877 144.227 150.82 137.873 147.488C129.528 143.116 125.556 139.736 120.502 119.368L119.979 117.252C118.136 109.757 115.315 98.0196 112.458 86.1107L111.602 82.5375L110.746 78.9804C106.632 61.8482 102.84 46.0714 102.232 44.0679C101.662 42.1875 100.986 37.7089 97.7165 37.7089C94.5106 37.7089 93.7764 42.1929 93.1901 44.0679C92.5035 46.275 87.9613 65.2554 83.3873 84.3214L82.5317 87.8946C80.1944 97.6862 77.8335 107.472 75.4489 117.252L74.9208 119.368C69.8715 139.736 65.8997 143.116 57.5546 147.488C51.1954 150.82 38.4982 149.877 38.4982 149.877L0 0.171429ZM232.384 26.7857V32.1161L232.394 32.1107V121.189C232.32 139.473 230.424 143.529 222.185 147.739C215.778 151.007 205.986 149.77 205.986 149.77V49.9929C205.986 44.9839 207.65 41.7 213.787 38.7536C217.447 36.9911 220.864 35.6464 224.414 33.6482C229.965 30.5518 232.384 26.7857 232.384 26.7857ZM242.958 0.669643C242.958 0.669643 263.435 -2.93571 273.576 6.6C280.062 12.7071 287.319 23.6893 287.319 23.6893L305.171 50.2875C306.037 51.6696 307.167 53.1804 308.974 53.1804C310.785 53.1804 311.921 51.6696 312.787 50.2875L330.639 23.6893C330.639 23.6893 337.896 12.7071 344.382 6.6C354.523 -2.93571 375 0.669643 375 0.669643L326.482 75.2571L374.868 149.62L374.699 149.641C372.692 149.882 353.382 151.907 343.775 142.859C337.283 136.762 330.639 126.83 330.639 126.83L312.787 100.238C311.921 98.8447 310.785 97.3446 308.979 97.3446C307.167 97.3446 306.037 98.8447 305.171 100.238L287.319 126.83C287.319 126.83 281.033 136.762 274.548 142.859C264.407 152.411 243.085 149.62 243.085 149.62L291.47 75.2625L242.958 0.669643ZM232.183 0H232.394C232.394 10.2321 231.412 16.2964 225.069 21.0161C222.107 23.2248 218.863 25.0127 215.424 26.3304C209.783 28.4143 205.986 32.1429 205.986 32.1429C205.986 13.5214 208.785 6.78214 216.285 2.78571C220.854 0.364286 228.285 0.0321429 231.18 0L232.183 0Z" fill="black"/>
</g>
<defs>
<clipPath id="clip0_7_1401">
<rect width="375" height="150" fill="white"/>
</clipPath>
</defs>
</svg>
